<svg width="60" height="16" viewBox="0 0 60 16" fill="none" xmlns="http://www.w3.org/2000/svg">
<path d="M30.9 6.2C30.6 5.9 30.1 5.7 29.6 5.7C29.2 5.7 28.7 5.9 28.6 6.4C28.5 6.9 29 7 29.4 7.1L30 7.2C31 7.5 31.8 8.1 31.6 9.3C31.5 10.1 31.2 10.9 30.5 11.4C29.8 11.9 29 12.1 28.2 12.1C27.2 12.1 26.3 11.8 25.6 11.2L26.7 9.6C27.1 10 27.7 10.4 28.4 10.4C28.9 10.4 29.4 10.2 29.5 9.6C29.6 9 28.8 8.8 28.4 8.7C27.2 8.3 26.4 8 26.6 6.5C26.8 5 28.1 4 29.6 4C30.4 4 31.3 4.2 31.9 4.6L30.9 6.2Z" fill="#3E3A39"/>
<path d="M34.7 5.9002L34.5 7.2002H36.7999L36.5 8.9002H34.2L34 10.2002H36.4L36.0999 11.9002H31.7L33 4.2002H37.4L37.0999 5.9002H34.7Z" fill="#3E3A39"/>
<path d="M39.9999 5.9001L39.7999 7.2001H42.0999L41.7999 8.9001H39.4999L39.2999 10.2001H41.6999L41.3999 11.9001H36.9999L38.1999 4.1001H42.5999L42.2999 5.8001H39.9999V5.9001Z" fill="#3E3A39"/>
<path d="M43.5999 4.2002H45.5999L47.2999 8.4002L47.9999 4.2002H49.9999L48.7999 12.0002H46.7999L45.0999 7.8002L44.3999 12.0002H42.3999L43.5999 4.2002Z" fill="#3E3A39"/>
<path d="M22.6999 9.0002H20.9999L22.1999 6.5002L22.6999 9.0002ZM22.9999 10.6002L23.2999 12.0002H25.4999L23.7999 4.2002H21.5999L17.2999 12.0002H19.4999L20.2999 10.6002H22.9999Z" fill="#3E3A39"/>
<path d="M57 9.0001C57.1 9.2001 57.5 10.3001 57.5 10.3001H58.2999L57.4 8.1001H56.5999L55.7 10.3001H56.5C56.6 10.4001 57 9.2001 57 9.0001Z" fill="#3E3A39"/>
<path d="M56.9999 11.3998C56.9999 11.2998 56.9999 10.7998 56.9999 10.7998H56.2999V11.9998H59.1999V11.3998C59.1999 11.3998 57.0999 11.3998 56.9999 11.3998Z" fill="#3E3A39"/>
<path d="M59.1999 8H59.0999H58.3999V10.5H59.1999V8Z" fill="#3E3A39"/>
<path d="M54.4999 8H53.7999V11.9H54.4999C54.4999 11.9 54.4999 10 54.4999 9.9C54.5999 9.9 55.0999 9.9 55.0999 9.9V9.3C55.0999 9.3 54.5999 9.3 54.4999 9.3V8Z" fill="#3E3A39"/>
<path d="M52.1999 8.1001C51.4999 8.1001 50.9999 8.8001 50.9999 9.6001C50.9999 10.4001 51.5999 11.1001 52.1999 11.1001C52.8999 11.1001 53.3999 10.4001 53.3999 9.6001C53.3999 8.8001 52.8999 8.1001 52.1999 8.1001ZM52.1999 10.4001C51.8999 10.4001 51.5999 10.1001 51.5999 9.7001C51.5999 9.3001 51.8999 9.0001 52.1999 9.0001C52.4999 9.0001 52.7999 9.3001 52.7999 9.7001C52.7999 10.0001 52.4999 10.4001 52.1999 10.4001Z" fill="#3E3A39"/>
<path d="M2.20002 12.0999C1.40002 11.0999 0.70002 9.9999 0.30002 8.8999C-0.29998 11.3999 0.20002 13.6999 1.80002 14.9999C3.10002 15.9999 4.90002 16.1999 6.70002 15.6999C5.00002 14.8999 3.50002 13.6999 2.20002 12.0999Z" fill="#E60012"/>
<path d="M14.1 7.90013C14.9 5.20013 14.5 2.70013 12.8 1.30013C11.4 0.200125 9.49998 0.000125408 7.59998 0.700125C5.39998 -0.199875 3.19998 -0.199875 1.69998 1.00013C-0.900018 3.10013 -0.500018 8.00013 2.59998 11.8001C5.69998 15.6001 10.3 17.0001 12.9 14.9001C14.7 13.4001 15.1 10.7001 14.1 7.90013ZM12.3 6.50013L12.9 8.10013L13.2 6.50013H14L13.5 9.40012H12.7L12 7.80013L11.8 9.40012H11L11.5 6.50013H12.3ZM11.2 6.50013L11.1 7.10013H10.2L10.1 7.60013H11L10.9 8.20012H9.99998L9.89998 8.80013H10.8L10.7 9.40012H9.09998L9.59998 6.50013H11.2ZM2.09998 1.50013C3.39998 0.500125 5.19998 0.300125 6.99998 0.900125C5.39998 1.60013 3.89998 2.70013 2.59998 4.30013C1.79998 5.30013 1.19998 6.40013 0.699982 7.40013C0.0999818 5.00013 0.499982 2.70013 2.09998 1.50013ZM3.79998 9.40012L3.39998 7.40013L2.39998 9.40012H1.59998L3.19998 6.50013H3.99998L4.59998 9.40012H3.79998ZM6.99998 8.40012C6.99998 8.70012 6.89998 9.00012 6.59998 9.20012C6.39998 9.40012 5.99998 9.50012 5.69998 9.50012C5.29998 9.50012 4.99998 9.40012 4.69998 9.20012L5.09998 8.60013C5.29998 8.80013 5.49998 8.90012 5.69998 8.90012C5.89998 8.90012 6.09998 8.80013 6.09998 8.60013C6.09998 8.40013 5.89998 8.30013 5.69998 8.30013C5.39998 8.10013 5.09998 8.00013 5.19998 7.40013C5.29998 6.80013 5.79998 6.40013 6.29998 6.40013C6.59998 6.40013 6.89998 6.50013 7.19998 6.60013L6.79998 7.30013C6.69998 7.10013 6.49998 7.10013 6.29998 7.10013C6.19998 7.10013 5.99998 7.10013 5.99998 7.30013C5.99998 7.50013 6.19998 7.50013 6.29998 7.60013L6.49998 7.70013C6.79998 7.80013 7.09998 8.00012 6.99998 8.40012ZM7.59998 6.50013H9.19998L9.09998 7.10013H8.19998L8.09998 7.60013H8.99998L8.89998 8.30013H7.99998V8.80013H8.89998L8.69998 9.40012H7.09998L7.59998 6.50013ZM12.5 14.4001C11.3 15.4001 9.59998 15.6001 7.89998 15.1001C9.29998 14.4001 10.7 13.3001 11.9 11.9001C12.8 10.8001 13.4 9.70012 13.8 8.50012C14.5 10.9001 14.1 13.2001 12.5 14.4001Z" fill="#E60012"/>
</svg>
